<svg width="1280" height="40" viewBox="0 0 1280 40" fill="none" xmlns="http://www.w3.org/2000/svg">
<g clip-path="url(#clip0_262_73)">
<path d="M1161.61 12.3745H1165.79V29.7087H1161.61V12.3745ZM1167.45 23.1883C1167.45 18.8948 1170.05 16.3213 1173.95 16.3213C1177.85 16.3213 1180.45 18.8948 1180.45 23.1883C1180.45 27.4818 1177.94 30.082 1173.95 30.082C1169.96 30.082 1167.45 27.5752 1167.45 23.1883ZM1176.32 23.1883C1176.32 20.8282 1175.42 19.4415 1173.99 19.4415C1172.56 19.4415 1171.68 20.7749 1171.68 23.1883C1171.68 25.6017 1172.56 26.9218 1173.99 26.9218C1175.42 26.9218 1176.34 25.6018 1176.34 23.2016L1176.32 23.1883ZM1182.12 30.602H1186.15C1186.33 31.0471 1186.65 31.4182 1187.06 31.659C1187.47 31.8998 1187.94 31.9969 1188.41 31.9354C1190.01 31.9354 1190.84 31.0554 1190.84 29.7487V27.3486H1190.85C1190.51 28.0959 1189.95 28.7188 1189.26 29.1353C1188.56 29.5518 1187.76 29.7423 1186.95 29.6819C1183.9 29.6819 1181.87 27.2952 1181.87 23.1883C1181.87 19.0814 1183.81 16.5213 1187.07 16.5213C1187.89 16.476 1188.71 16.6941 1189.41 17.1455C1190.11 17.5969 1190.65 18.2593 1190.97 19.0414H1190.85V16.628H1194.99V29.6153C1194.99 32.7488 1192.28 34.7089 1188.31 34.7089C1184.69 34.6955 1182.38 33.0021 1182.14 30.6154L1182.12 30.602ZM1190.85 23.1883C1190.85 21.0949 1189.92 19.7748 1188.44 19.7748C1186.95 19.7748 1186.04 21.1082 1186.04 23.1883C1186.04 25.2684 1186.94 26.4952 1188.44 26.4952C1189.93 26.4952 1190.85 25.3617 1190.85 23.1883ZM1196.64 23.1883C1196.64 18.8948 1199.24 16.3213 1203.14 16.3213C1207.04 16.3213 1209.64 18.8948 1209.64 23.1883C1209.64 27.4818 1207.12 30.082 1203.14 30.082C1199.16 30.082 1196.67 27.5752 1196.67 23.1883H1196.64ZM1205.51 23.1883C1205.51 20.8282 1204.6 19.4415 1203.18 19.4415C1201.76 19.4415 1200.87 20.7749 1200.87 23.1883C1200.87 25.6017 1201.75 26.9218 1203.18 26.9218C1204.61 26.9218 1205.53 25.6018 1205.53 23.2016L1205.51 23.1883ZM1211.33 13.4678C1211.31 13.0318 1211.42 12.6002 1211.65 12.2286C1211.87 11.8569 1212.2 11.5621 1212.58 11.3822C1212.97 11.2023 1213.4 11.1455 1213.82 11.219C1214.24 11.2926 1214.63 11.4931 1214.94 11.7949C1215.24 12.0967 1215.46 12.4858 1215.55 12.9123C1215.64 13.3389 1215.6 13.7833 1215.44 14.1883C1215.28 14.5934 1215.01 14.9406 1214.66 15.1853C1214.31 15.4299 1213.89 15.5609 1213.46 15.5613C1213.19 15.5683 1212.92 15.52 1212.67 15.419C1212.41 15.3179 1212.18 15.1662 1211.99 14.9728C1211.79 14.7792 1211.63 14.5477 1211.53 14.2917C1211.42 14.0356 1211.36 13.7601 1211.36 13.4812L1211.33 13.4678ZM1211.33 16.6147H1215.56V29.7619H1211.4L1211.33 16.6147ZM1230.76 23.1883C1230.76 27.4686 1228.89 29.9487 1225.7 29.9487C1224.88 30.0002 1224.07 29.7939 1223.37 29.3575C1222.68 28.9212 1222.13 28.2758 1221.8 27.5086H1221.72V33.9889H1217.55V16.6547H1221.69V19.0014H1221.77C1222.09 18.2191 1222.64 17.556 1223.33 17.1027C1224.03 16.6493 1224.85 16.4277 1225.67 16.468C1228.95 16.4413 1230.84 18.9081 1230.84 23.2016L1230.76 23.1883ZM1226.51 23.1883C1226.51 21.1082 1225.56 19.7615 1224.09 19.7615C1222.62 19.7615 1221.69 21.0949 1221.68 23.1883C1221.67 25.2817 1222.62 26.6018 1224.09 26.6018C1225.56 26.6018 1226.58 25.3617 1226.58 23.2016L1226.51 23.1883ZM1237.88 16.3079C1241.38 16.3079 1243.55 18.0014 1243.58 20.7215H1239.77C1239.77 19.7748 1239 19.1881 1237.86 19.1881C1236.71 19.1881 1236.17 19.6415 1236.17 20.3215C1236.17 21.0015 1236.65 21.2149 1237.61 21.4149L1240.29 21.9749C1242.89 22.535 1243.93 23.6017 1243.93 25.5885C1243.93 28.2552 1241.52 30.0687 1237.95 30.0687C1234.37 30.0687 1232.04 28.3086 1231.88 25.6285H1235.92C1236.04 26.6018 1236.79 27.1752 1238.01 27.1752C1239.23 27.1752 1239.81 26.7752 1239.81 26.0684C1239.81 25.3617 1239.42 25.2417 1238.42 25.0285L1236 24.5083C1233.49 23.9617 1232.17 22.615 1232.17 20.6015C1232.25 17.988 1234.44 16.3213 1237.96 16.3213L1237.88 16.3079ZM1257.91 29.7487H1253.86V27.2818H1253.78C1253.56 28.1047 1253.07 28.8238 1252.39 29.3207C1251.71 29.8176 1250.88 30.0626 1250.05 30.0153C1249.42 30.0363 1248.8 29.9208 1248.22 29.6763C1247.63 29.4318 1247.11 29.0639 1246.68 28.5968C1246.24 28.1296 1245.91 27.5738 1245.7 26.9657C1245.49 26.3576 1245.41 25.7111 1245.46 25.0684V16.628H1249.64V24.1483C1249.64 25.6951 1250.43 26.5352 1251.73 26.5352C1252.04 26.5328 1252.34 26.4634 1252.61 26.3315C1252.89 26.1996 1253.13 26.0085 1253.33 25.7709C1253.53 25.5332 1253.68 25.2548 1253.76 24.9541C1253.85 24.6535 1253.87 24.3378 1253.82 24.0283V16.628H1257.98L1257.91 29.7487ZM1259.92 16.6147H1263.98V19.1481H1264.07C1264.29 18.3366 1264.77 17.624 1265.43 17.1222C1266.1 16.6203 1266.9 16.3575 1267.72 16.3747C1268.55 16.3011 1269.37 16.5458 1270.03 17.0613C1270.69 17.5767 1271.14 18.3255 1271.28 19.1614H1271.47C1271.73 18.3211 1272.25 17.5922 1272.96 17.0882C1273.66 16.5842 1274.51 16.3334 1275.37 16.3747C1275.94 16.3523 1276.51 16.4539 1277.04 16.6728C1277.57 16.8915 1278.05 17.2226 1278.44 17.6442C1278.84 18.0659 1279.14 18.5687 1279.34 19.1197C1279.53 19.6707 1279.61 20.2574 1279.57 20.8415V29.7619H1275.37V21.9349C1275.37 20.6015 1274.76 19.8548 1273.57 19.8548C1273.31 19.8503 1273.05 19.9042 1272.81 20.0127C1272.57 20.121 1272.36 20.2814 1272.18 20.4828C1272.01 20.6841 1271.88 20.9217 1271.8 21.1793C1271.73 21.4369 1271.7 21.7082 1271.74 21.9749V29.7619H1267.76V21.8949C1267.76 20.5615 1267.12 19.8548 1265.98 19.8548C1265.72 19.8527 1265.45 19.9087 1265.21 20.0192C1264.97 20.1296 1264.75 20.2919 1264.58 20.4953C1264.4 20.6987 1264.27 20.9382 1264.19 21.198C1264.11 21.4578 1264.09 21.7318 1264.12 22.0016V29.7619H1259.95L1259.92 16.6147Z" fill="#1D2130"/>
<path d="M1153.36 13.5079C1153.36 10.854 1152.58 8.26196 1151.11 6.07127C1149.65 3.88056 1147.58 2.19336 1145.17 1.23063C1142.76 0.267914 1140.12 0.0745687 1137.6 0.675921C1135.08 1.27728 1132.79 2.64529 1131.04 4.60077H1114.82V39.7225H1149.08V23.3084C1150.42 22.0749 1151.5 20.5646 1152.24 18.8759C1152.97 17.1871 1153.36 15.3581 1153.36 13.5079ZM1146.76 13.5079C1146.77 14.7796 1146.4 16.0235 1145.71 17.0822C1145.03 18.1408 1144.05 18.9666 1142.9 19.4551C1141.76 19.9437 1140.5 20.0728 1139.28 19.8263C1138.07 19.5799 1136.95 18.9688 1136.07 18.0705C1135.19 17.1722 1134.59 16.027 1134.35 14.78C1134.11 13.5329 1134.23 12.24 1134.71 11.0648C1135.18 9.88965 1135.98 8.8851 1137.01 8.1783C1138.05 7.47151 1139.26 7.09423 1140.5 7.09422C1142.16 7.09422 1143.75 7.76952 1144.92 8.97193C1146.1 10.1743 1146.76 11.8057 1146.76 13.5079ZM1142.49 32.9622H1121.41V11.3611H1127.83C1127.71 12.0698 1127.64 12.7879 1127.64 13.5079C1127.64 17.0043 1129 20.3565 1131.41 22.8288C1133.82 25.3011 1137.09 26.6917 1140.5 26.6952C1141.16 26.6916 1141.83 26.6337 1142.49 26.5219V32.9622Z" fill="#1D2130"/>
</g>
<g clip-path="url(#clip1_262_73)">
<path d="M887.134 31.8655C886.191 31.9177 885.258 31.6439 884.486 31.0884C884.164 30.8443 883.904 30.5236 883.73 30.1541C883.556 29.7846 883.473 29.3773 883.488 28.9676V13.9603C883.48 13.8967 883.486 13.8322 883.507 13.7716C883.527 13.7111 883.561 13.6562 883.605 13.6109C883.649 13.5656 883.703 13.5313 883.763 13.5104C883.822 13.4896 883.885 13.4829 883.947 13.4907H886.611C886.912 13.4907 887.054 13.6527 887.054 13.9603V27.802C887.054 28.4172 887.324 28.7248 887.879 28.7248C888.114 28.7347 888.349 28.7074 888.576 28.6439C888.893 28.6439 889.068 28.7409 889.084 29.0324L889.321 31.056C889.333 31.115 889.332 31.1759 889.318 31.2344C889.305 31.2929 889.279 31.3478 889.243 31.3954C889.207 31.4429 889.161 31.4821 889.109 31.5101C889.057 31.5381 889 31.5545 888.941 31.558C888.357 31.7547 887.748 31.8585 887.134 31.8655Z" fill="#1D2130"/>
<path d="M902.115 30.134C900.777 31.2631 899.095 31.8808 897.36 31.8808C895.624 31.8808 893.942 31.2631 892.604 30.134C891.427 28.9213 890.768 27.2835 890.768 25.5767C890.768 23.8698 891.427 22.232 892.604 21.0194C893.945 19.8962 895.625 19.2822 897.36 19.2822C899.094 19.2822 900.775 19.8962 902.115 21.0194C903.264 22.2433 903.906 23.8731 903.906 25.5687C903.906 27.2642 903.264 28.894 902.115 30.1178V30.134ZM895.108 27.9969C895.729 28.5715 896.537 28.8897 897.375 28.8897C898.213 28.8897 899.021 28.5715 899.642 27.9969C900.204 27.3371 900.514 26.4918 900.514 25.6172C900.514 24.7425 900.204 23.8973 899.642 23.2373C899.021 22.6629 898.213 22.3447 897.375 22.3447C896.537 22.3447 895.729 22.6629 895.108 23.2373C894.546 23.8973 894.237 24.7425 894.237 25.6172C894.237 26.4918 894.546 27.3371 895.108 27.9969Z" fill="#1D2130"/>
<path d="M918.57 19.6903C918.871 19.6903 919.014 19.8522 919.014 20.1598V31.7674C919.042 32.5509 918.898 33.3308 918.594 34.0505C918.289 34.7703 917.832 35.4116 917.254 35.9281C915.972 37.0443 914.324 37.6228 912.641 37.547C911.121 37.6016 909.621 37.1777 908.345 36.3328C907.8 35.9673 907.334 35.4913 906.977 34.9343C906.62 34.3774 906.379 33.7513 906.268 33.095C906.268 32.7712 906.268 32.6255 906.696 32.6255H909.36C909.473 32.6295 909.582 32.6667 909.675 32.7327C909.768 32.7988 909.84 32.8909 909.883 32.9979C910.055 33.4896 910.4 33.8989 910.85 34.1473C911.398 34.4362 912.008 34.5808 912.625 34.5682C912.997 34.5891 913.37 34.5339 913.721 34.406C914.072 34.2781 914.395 34.0802 914.67 33.8236C914.922 33.555 915.118 33.2374 915.246 32.8895C915.374 32.5417 915.431 32.171 915.415 31.7998V30.7799C914.462 31.4962 913.301 31.8665 912.118 31.8322C911.29 31.863 910.464 31.7225 909.69 31.4193C908.917 31.1161 908.211 30.6563 907.616 30.0676C906.473 28.8601 905.834 27.2464 905.834 25.567C905.834 23.8876 906.473 22.2739 907.616 21.0664C908.214 20.4829 908.921 20.0276 909.694 19.7273C910.467 19.427 911.291 19.2878 912.118 19.318C913.335 19.2851 914.527 19.6794 915.495 20.435V20.1759C915.487 20.114 915.494 20.051 915.513 19.9918C915.533 19.9326 915.565 19.8785 915.607 19.8336C915.65 19.7886 915.702 19.7539 915.759 19.7319C915.816 19.7099 915.878 19.7012 915.939 19.7065L918.57 19.6903ZM912.419 28.9505C912.828 28.9634 913.234 28.8846 913.609 28.7196C913.984 28.5545 914.32 28.3073 914.591 27.9954C915.118 27.3003 915.404 26.4461 915.404 25.567C915.404 24.6879 915.118 23.8337 914.591 23.1387C914.321 22.8309 913.987 22.5874 913.615 22.4252C913.243 22.263 912.84 22.186 912.435 22.1997C912.022 22.1864 911.611 22.265 911.23 22.4299C910.85 22.5948 910.509 22.8421 910.232 23.1548C909.648 23.8197 909.341 24.6908 909.375 25.5832C909.347 26.4668 909.647 27.3287 910.216 27.9954C910.494 28.3072 910.835 28.554 911.215 28.7189C911.596 28.8837 912.006 28.9628 912.419 28.9505Z" fill="#1D2130"/>
<path d="M932.695 30.133C931.354 31.2562 929.673 31.8701 927.939 31.8701C926.204 31.8701 924.524 31.2562 923.183 30.133C922.033 28.9064 921.391 27.2739 921.391 25.5757C921.391 23.8775 922.033 22.2449 923.183 21.0184C924.525 19.898 926.205 19.2859 927.939 19.2859C929.672 19.2859 931.352 19.898 932.695 21.0184C933.844 22.2421 934.485 23.8721 934.485 25.5676C934.485 27.2631 933.844 28.893 932.695 30.1167V30.133ZM925.672 27.996C925.976 28.2912 926.334 28.5219 926.726 28.6748C927.118 28.8276 927.535 28.8996 927.954 28.8864C928.371 28.8974 928.786 28.8245 929.175 28.6717C929.564 28.5188 929.919 28.2892 930.222 27.996C930.774 27.3316 931.078 26.4881 931.078 25.6161C931.078 24.7442 930.774 23.9007 930.222 23.2363C929.919 22.9431 929.564 22.7135 929.175 22.5606C928.786 22.4078 928.371 22.3349 927.954 22.3459C927.535 22.3327 927.118 22.4047 926.726 22.5575C926.334 22.7104 925.976 22.9411 925.672 23.2363C925.119 23.9007 924.815 24.7442 924.815 25.6161C924.815 26.4881 925.119 27.3316 925.672 27.996Z" fill="#1D2130"/>
<path d="M940.21 16.9391C939.791 17.3137 939.253 17.5202 938.696 17.5202C938.139 17.5202 937.601 17.3137 937.182 16.9391C936.992 16.756 936.84 16.5351 936.737 16.2902C936.633 16.0452 936.58 15.7812 936.58 15.5145C936.58 15.2477 936.633 14.9837 936.737 14.7388C936.84 14.4937 936.992 14.2729 937.182 14.0898C937.605 13.7246 938.141 13.5242 938.696 13.5242C939.25 13.5242 939.786 13.7246 940.21 14.0898C940.4 14.2729 940.551 14.4937 940.654 14.7388C940.758 14.9837 940.811 15.2477 940.811 15.5145C940.811 15.7812 940.758 16.0452 940.654 16.2902C940.551 16.5351 940.4 16.756 940.21 16.9391ZM940.543 31.8656C939.6 31.9128 938.669 31.6395 937.895 31.0884C937.577 30.8407 937.322 30.5189 937.152 30.15C936.98 29.7811 936.898 29.3757 936.912 28.9677V20.1608C936.904 20.0972 936.911 20.0327 936.932 19.9722C936.952 19.9117 936.985 19.8567 937.03 19.8114C937.074 19.7661 937.128 19.7318 937.187 19.7109C937.247 19.6901 937.31 19.6834 937.372 19.6913H940.035C940.336 19.6913 940.479 19.8532 940.479 20.1608V27.8021C940.479 28.4172 940.749 28.7248 941.288 28.7248C941.528 28.7337 941.768 28.7064 942.001 28.6439C942.318 28.6439 942.492 28.7411 942.508 29.0324L942.746 31.0562C942.757 31.1151 942.756 31.1759 942.743 31.2345C942.729 31.2929 942.704 31.3479 942.668 31.3954C942.632 31.443 942.586 31.4821 942.534 31.5101C942.482 31.5382 942.424 31.5545 942.366 31.558C941.777 31.7559 941.162 31.8597 940.543 31.8656Z" fill="#1D2130"/>
<path d="M952.544 19.3024C953.377 19.2689 954.206 19.4064 954.985 19.7067C955.765 20.0071 956.476 20.4642 957.079 21.0509C958.2 22.2796 958.823 23.8965 958.823 25.5758C958.823 27.2551 958.2 28.8721 957.079 30.1007C956.479 30.6926 955.769 31.1542 954.989 31.4575C954.21 31.7607 953.378 31.8996 952.544 31.8653C951.358 31.8922 950.194 31.5228 949.231 30.813V36.6573C949.231 36.9649 949.073 37.1107 948.772 37.1107H946.108C946.048 37.1222 945.985 37.1185 945.926 37.0998C945.867 37.0811 945.813 37.0481 945.769 37.0034C945.726 36.9588 945.693 36.904 945.675 36.8436C945.657 36.7833 945.653 36.7193 945.665 36.6573V23.3822C945.683 23.2524 945.672 23.1198 945.631 22.9952C945.591 22.8707 945.523 22.7574 945.432 22.6646C945.341 22.5718 945.23 22.502 945.108 22.4607C944.986 22.4194 944.856 22.408 944.729 22.4269H944.206C943.857 22.4269 943.683 22.2975 943.683 22.0384V20.1281C943.675 20.0099 943.706 19.8923 943.773 19.7952C943.839 19.6979 943.936 19.6269 944.048 19.5939C944.596 19.3903 945.176 19.2916 945.76 19.3024C946.341 19.2499 946.925 19.3758 947.437 19.6642C947.948 19.9527 948.363 20.3904 948.629 20.9214C949.14 20.3939 949.75 19.9783 950.423 19.7C951.097 19.4215 951.819 19.2863 952.544 19.3024ZM950.072 27.9961C950.354 28.2978 950.694 28.5379 951.07 28.7019C951.446 28.8659 951.85 28.9504 952.259 28.9504C952.669 28.9504 953.073 28.8659 953.449 28.7019C953.824 28.5379 954.165 28.2978 954.447 27.9961C955.043 27.3179 955.355 26.4293 955.319 25.5192C955.36 24.6082 955.046 23.7176 954.447 23.0422C954.165 22.7405 953.824 22.5003 953.449 22.3363C953.073 22.1723 952.669 22.0878 952.259 22.0878C951.85 22.0878 951.446 22.1723 951.07 22.3363C950.694 22.5003 950.354 22.7405 950.072 23.0422C949.495 23.7295 949.195 24.6147 949.231 25.5192C949.199 26.4229 949.499 27.3063 950.072 27.9961Z" fill="#1D2130"/>
<path d="M966.303 31.8645C964.88 31.9242 963.469 31.5766 962.228 30.8608C961.731 30.5548 961.308 30.1383 960.989 29.6422C960.671 29.1462 960.466 28.5833 960.39 27.9953C960.39 27.6715 960.501 27.5097 960.849 27.5097H963.18C963.291 27.5141 963.399 27.5497 963.491 27.6125C963.584 27.6753 963.656 27.763 963.703 27.8658C964.036 28.74 964.907 29.1771 966.303 29.1771C966.79 29.1999 967.274 29.0997 967.715 28.8857C967.865 28.8157 967.996 28.705 968.091 28.5653C968.185 28.4255 968.242 28.2622 968.253 28.0925C968.253 27.6715 968 27.3801 967.492 27.1858C966.891 26.9813 966.268 26.8455 965.637 26.7811C964.89 26.6947 964.149 26.5595 963.418 26.3764C962.707 26.2121 962.061 25.8343 961.563 25.2917C961.27 24.9228 961.054 24.4964 960.928 24.0386C960.803 23.5809 960.771 23.1018 960.836 22.6311C960.9 22.1604 961.058 21.7081 961.3 21.3024C961.543 20.8968 961.864 20.5464 962.245 20.273C963.388 19.5297 964.728 19.1676 966.08 19.2369C967.392 19.1917 968.688 19.5226 969.822 20.1921C970.279 20.4566 970.674 20.8222 970.975 21.2618C971.276 21.7015 971.479 22.2044 971.567 22.7338C971.567 23.0575 971.423 23.2195 971.138 23.2195H968.792C968.693 23.2254 968.595 23.2009 968.51 23.1489C968.425 23.0969 968.358 23.0199 968.316 22.9281C968.159 22.5446 967.864 22.2374 967.492 22.0701C967.071 21.8455 966.603 21.7342 966.128 21.7463C965.663 21.7205 965.2 21.8151 964.781 22.0215C964.634 22.0797 964.507 22.1817 964.416 22.3144C964.326 22.4472 964.276 22.6045 964.274 22.7662C964.284 22.9876 964.364 23.1999 964.5 23.3717C964.637 23.5436 964.825 23.6662 965.034 23.7214C965.643 23.9556 966.276 24.1186 966.921 24.2071C967.663 24.3067 968.398 24.4472 969.125 24.628C969.836 24.7921 970.481 25.1699 970.98 25.7126C971.246 26.0116 971.452 26.3615 971.585 26.7422C971.719 27.1228 971.776 27.5268 971.756 27.9306C971.77 28.4902 971.642 29.0439 971.383 29.5375C971.124 30.0313 970.745 30.4481 970.282 30.7475C969.097 31.524 967.709 31.9137 966.303 31.8645Z" fill="#1D2130"/>
<path d="M988.514 31.0561C988.522 31.1135 988.52 31.1723 988.507 31.2288C988.494 31.2854 988.468 31.3385 988.435 31.3854C988.401 31.4321 988.358 31.4714 988.309 31.5011C988.26 31.5306 988.206 31.55 988.149 31.5579C987.57 31.7509 986.966 31.8545 986.358 31.8655C985.756 31.9292 985.146 31.8331 984.591 31.5863C984.036 31.3395 983.553 30.9506 983.187 30.4571C982.068 31.4402 980.62 31.9447 979.145 31.8655C978.46 31.8977 977.776 31.7833 977.137 31.5296C976.499 31.2758 975.919 30.8884 975.435 30.3923C974.955 29.8723 974.582 29.2589 974.34 28.5884C974.098 27.918 973.991 27.2045 974.025 26.4906V20.1607C974.025 19.8531 974.167 19.6912 974.468 19.6912H977.132C977.432 19.6912 977.575 19.8531 977.575 20.1607V26.005C977.546 26.7331 977.79 27.4452 978.257 27.9963C978.49 28.2487 978.774 28.4473 979.088 28.5785C979.403 28.7097 979.741 28.7706 980.08 28.7572C980.428 28.7727 980.774 28.7177 981.101 28.5955C981.427 28.4732 981.728 28.2861 981.983 28.0448C982.224 27.7906 982.412 27.4885 982.535 27.1571C982.657 26.8257 982.712 26.4722 982.696 26.1184V20.1607C982.696 19.8531 982.838 19.6912 983.139 19.6912H985.835C986.136 19.6912 986.278 19.8531 986.278 20.1607V27.7859C986.278 28.4172 986.548 28.7248 987.072 28.7248C987.317 28.7345 987.563 28.7073 987.8 28.6438C987.861 28.6266 987.923 28.6237 987.985 28.6349C988.046 28.6461 988.104 28.6713 988.154 28.7087C988.205 28.7461 988.246 28.7946 988.275 28.8508C988.305 28.9068 988.321 28.9688 988.324 29.0325L988.514 31.0561Z" fill="#1D2130"/>
<path d="M1013.7 31.0564C1013.72 31.1144 1013.72 31.1749 1013.71 31.2335C1013.7 31.292 1013.67 31.3473 1013.64 31.3953C1013.6 31.4433 1013.56 31.4828 1013.51 31.5109C1013.46 31.5391 1013.4 31.5553 1013.34 31.5584C1012.75 31.754 1012.14 31.8577 1011.52 31.8659C1010.57 31.9155 1009.64 31.6421 1008.87 31.0888C1008.53 30.8518 1008.26 30.5342 1008.08 30.1643C1007.89 29.7944 1007.8 29.3835 1007.81 28.9681V25.1635C1007.84 24.4376 1007.6 23.7259 1007.14 23.1723C1006.92 22.9193 1006.64 22.7198 1006.34 22.5882C1006.03 22.4566 1005.7 22.3963 1005.37 22.4114C1005.07 22.3998 1004.77 22.458 1004.49 22.5813C1004.22 22.7047 1003.97 22.8902 1003.78 23.1238C1003.36 23.6662 1003.15 24.3442 1003.18 25.0341V31.0079C1003.18 31.3155 1003.03 31.4773 1002.73 31.4773H1000.05C999.992 31.4852 999.929 31.4785 999.869 31.4577C999.81 31.437 999.756 31.4025 999.712 31.3573C999.668 31.312 999.634 31.257 999.614 31.1964C999.593 31.1359 999.587 31.0714 999.594 31.0079V25.1635C999.629 24.4456 999.41 23.7388 998.976 23.1723C998.783 22.9344 998.54 22.7428 998.267 22.6113C997.993 22.4798 997.694 22.4115 997.391 22.4114C997.067 22.3981 996.746 22.4546 996.444 22.5773C996.144 22.7002 995.873 22.8864 995.648 23.1238C995.194 23.649 994.961 24.3349 994.997 25.0341V31.0079C995.005 31.0714 994.999 31.1359 994.978 31.1964C994.957 31.257 994.924 31.312 994.879 31.3573C994.835 31.4025 994.781 31.437 994.722 31.4577C994.663 31.4785 994.6 31.4852 994.538 31.4773H991.954C991.653 31.4773 991.509 31.3155 991.509 31.0079V23.3828C991.528 23.253 991.517 23.1204 991.477 22.9958C991.437 22.8713 991.367 22.758 991.277 22.6652C991.187 22.5724 991.075 22.5026 990.953 22.4613C990.831 22.4201 990.702 22.4086 990.575 22.4277H990.051C989.702 22.4277 989.527 22.2981 989.527 22.039V20.1287C989.52 20.0105 989.551 19.893 989.618 19.7958C989.684 19.6986 989.781 19.6275 989.893 19.5945C990.441 19.3909 991.021 19.2922 991.605 19.303C992.165 19.2544 992.726 19.3683 993.226 19.6319C993.725 19.8954 994.142 20.2977 994.427 20.7924C994.961 20.2748 995.595 19.8754 996.288 19.6192C996.98 19.3629 997.718 19.2553 998.454 19.303C999.167 19.2675 999.88 19.4043 1000.53 19.7025C1001.19 20.0006 1001.76 20.4517 1002.21 21.0191C1002.74 20.4368 1003.38 19.9808 1004.1 19.6841C1004.82 19.3873 1005.59 19.2571 1006.36 19.303C1007.06 19.27 1007.75 19.3839 1008.39 19.6375C1009.04 19.891 1009.63 20.2788 1010.12 20.7763C1010.6 21.2951 1010.98 21.9084 1011.22 22.5791C1011.46 23.2499 1011.57 23.9639 1011.53 24.6779V27.8024C1011.53 28.4176 1011.8 28.7252 1012.31 28.7252C1012.55 28.737 1012.8 28.7096 1013.04 28.6443C1013.37 28.6443 1013.54 28.7737 1013.56 29.0328L1013.7 31.0564Z" fill="#1D2130"/>
<path d="M827.813 17.5872C828.983 12.7866 831.691 8.52353 835.508 5.47688C839.324 2.43024 844.029 0.775146 848.874 0.775146C853.718 0.775146 858.423 2.43024 862.239 5.47688C866.056 8.52353 868.764 12.7866 869.934 17.5872H868.032C864.823 17.5389 861.679 18.5184 859.043 20.3879C858.891 20.5005 858.732 20.6032 858.568 20.6956H858.346C858.181 20.6032 858.022 20.5005 857.87 20.3879C855.211 18.5616 852.078 17.5863 848.874 17.5863C845.669 17.5863 842.537 18.5616 839.877 20.3879C839.725 20.5005 839.566 20.6032 839.401 20.6956H839.18C839.015 20.6032 838.856 20.5005 838.704 20.3879C836.068 18.5184 832.925 17.5389 829.715 17.5872H827.813ZM864.607 27.7379C865.584 26.9612 866.794 26.5549 868.032 26.5885H870.584V21.3917H868.032C865.852 21.3647 863.723 22.0575 861.96 23.3668C860.968 24.1136 859.768 24.5165 858.536 24.5165C857.304 24.5165 856.104 24.1136 855.112 23.3668C853.304 22.082 851.155 21.3932 848.953 21.3932C846.751 21.3932 844.601 22.082 842.794 23.3668C841.802 24.1136 840.602 24.5165 839.37 24.5165C838.137 24.5165 836.937 24.1136 835.946 23.3668C834.161 22.0407 832.001 21.3472 829.795 21.3917H827.163V26.5885H829.715C830.953 26.5549 832.163 26.9612 833.14 27.7379C834.944 29.0236 837.091 29.7128 839.291 29.7128C841.49 29.7128 843.637 29.0236 845.441 27.7379C846.419 26.9636 847.629 26.5576 848.866 26.5885C850.103 26.5522 851.315 26.9588 852.29 27.7379C854.097 29.0226 856.247 29.7114 858.449 29.7114C860.651 29.7114 862.8 29.0226 864.607 27.7379ZM864.607 37.0305C865.584 36.2539 866.794 35.8475 868.032 35.8811H870.584V30.6843H868.032C865.852 30.6574 863.723 31.3501 861.96 32.6594C860.968 33.4063 859.768 33.8091 858.536 33.8091C857.304 33.8091 856.104 33.4063 855.112 32.6594C853.304 31.3745 851.155 30.6859 848.953 30.6859C846.751 30.6859 844.601 31.3745 842.794 32.6594C841.802 33.4063 840.602 33.8091 839.37 33.8091C838.137 33.8091 836.937 33.4063 835.946 32.6594C834.161 31.3334 832.001 30.6398 829.795 30.6843H827.163V35.8811H829.715C830.953 35.8475 832.163 36.2539 833.14 37.0305C834.944 38.3162 837.091 39.0055 839.291 39.0055C841.49 39.0055 843.637 38.3162 845.441 37.0305C846.419 36.2562 847.629 35.8503 848.866 35.8811C850.103 35.8448 851.315 36.2514 852.29 37.0305C854.097 38.3153 856.247 39.0041 858.449 39.0041C860.651 39.0041 862.8 38.3153 864.607 37.0305Z" fill="#1D2130"/>
</g>
<path d="M610.708 11.6835H614.825V28.7562H610.708V11.6835ZM616.459 22.3099C616.459 18.0875 618.984 15.5682 622.882 15.5682C626.779 15.5682 629.305 18.0875 629.305 22.3099C629.305 26.5324 626.834 29.0658 622.882 29.0658C618.929 29.0658 616.459 26.6027 616.459 22.3099ZM625.174 22.3099C625.174 19.9876 624.281 18.6224 622.882 18.6224C621.482 18.6224 620.603 20.0298 620.603 22.3099C620.603 24.59 621.468 25.9694 622.882 25.9694C624.295 25.9694 625.174 24.6745 625.174 22.324V22.3099ZM630.855 29.5866H634.808C634.996 30.0152 635.314 30.3701 635.715 30.5983C636.115 30.8265 636.577 30.9159 637.031 30.8533C638.596 30.8533 639.42 29.9807 639.42 28.7139V26.3494H639.337C639.009 27.0742 638.477 27.6814 637.809 28.0928C637.141 28.5043 636.368 28.701 635.59 28.6577C632.585 28.6577 630.595 26.3072 630.595 22.2677C630.595 18.2283 632.489 15.6807 635.645 15.6807C636.448 15.6485 637.24 15.8685 637.917 16.3112C638.594 16.7539 639.123 17.3983 639.433 18.1578V15.8074H643.551V28.6154C643.551 31.6978 640.902 33.6119 636.99 33.6119C633.353 33.6119 631.089 31.937 630.855 29.6007V29.5866ZM639.433 22.2958C639.433 20.2409 638.514 18.9461 637.059 18.9461C635.604 18.9461 634.712 20.2268 634.712 22.2958C634.712 24.3648 635.59 25.533 637.059 25.533C638.527 25.533 639.433 24.393 639.433 22.3099V22.2958ZM645.101 22.2958C645.101 18.0734 647.627 15.554 651.524 15.554C655.422 15.554 657.961 18.0734 657.961 22.2958C657.961 26.5183 655.491 29.0517 651.524 29.0517C647.558 29.0517 645.101 26.6027 645.101 22.3099V22.2958ZM653.816 22.2958C653.816 19.9735 652.924 18.6083 651.524 18.6083C650.125 18.6083 649.315 20.0298 649.315 22.324C649.315 24.6182 650.179 25.9835 651.579 25.9835C652.979 25.9835 653.816 24.6745 653.816 22.324V22.2958ZM659.526 12.739C659.515 12.3128 659.628 11.8928 659.85 11.5324C660.072 11.1719 660.394 10.8872 660.774 10.7144C661.154 10.5417 661.576 10.4885 661.986 10.5618C662.395 10.6351 662.775 10.8314 663.075 11.1259C663.376 11.4205 663.585 11.8 663.675 12.2164C663.765 12.6326 663.733 13.067 663.582 13.4645C663.431 13.8618 663.168 14.2044 662.828 14.4486C662.487 14.6928 662.083 14.8277 661.667 14.8363C661.391 14.8556 661.115 14.8164 660.855 14.7209C660.594 14.6256 660.356 14.4759 660.155 14.2817C659.954 14.0874 659.795 13.8526 659.686 13.5919C659.578 13.3313 659.523 13.0505 659.526 12.7673V12.739ZM659.526 15.8355H663.643V28.7562H659.526V15.8355ZM678.59 22.2958C678.59 26.5183 676.764 28.9251 673.635 28.9251C672.833 28.9779 672.033 28.7767 671.347 28.3488C670.659 27.9209 670.116 27.2868 669.792 26.5324H669.709V32.8942H665.592V15.8074H669.709V18.1156H669.792C670.101 17.3487 670.633 16.6982 671.316 16.2524C671.999 15.8067 672.799 15.5874 673.607 15.6244C676.764 15.6807 678.644 18.1016 678.644 22.324L678.59 22.2958ZM674.472 22.2958C674.472 20.2409 673.552 18.9321 672.111 18.9321C670.67 18.9321 669.751 20.255 669.737 22.2958C669.723 24.3367 670.67 25.6457 672.111 25.6457C673.552 25.6457 674.472 24.3648 674.472 22.324V22.2958ZM685.657 15.5399C689.074 15.5399 691.147 17.2008 691.243 19.8609H687.496C687.496 18.946 686.755 18.3691 685.616 18.3691C684.476 18.3691 683.969 18.8194 683.969 19.4809C683.969 20.1424 684.422 20.3535 685.342 20.5506L687.976 21.0995C690.489 21.6484 691.558 22.6899 691.558 24.6464C691.558 27.3206 689.184 29.0377 685.685 29.0377C682.185 29.0377 679.893 27.3206 679.714 24.6886H683.68C683.805 25.6457 684.546 26.2086 685.754 26.2086C686.961 26.2086 687.51 25.8005 687.51 25.1249C687.51 24.4493 687.126 24.3086 686.138 24.0974L683.764 23.5767C681.306 23.0559 680.016 21.7188 680.016 19.7484C680.044 17.2148 682.254 15.5682 685.657 15.5682V15.5399ZM705.297 28.7281H701.33V26.3213H701.248C701.03 27.1293 700.549 27.8366 699.885 28.3256C699.221 28.8146 698.414 29.0559 697.598 29.0095C696.971 29.046 696.346 28.9444 695.762 28.7115C695.178 28.4785 694.649 28.1198 694.212 27.6595C693.775 27.1992 693.44 26.6479 693.228 26.0432C693.016 25.4384 692.934 24.7941 692.986 24.1537V15.8074H697.103V23.1826C697.103 24.7167 697.872 25.533 699.149 25.533C699.448 25.5337 699.743 25.4687 700.016 25.3424C700.29 25.2162 700.533 25.0316 700.73 24.8009C700.928 24.5704 701.075 24.2992 701.161 24.0055C701.249 23.7118 701.274 23.4024 701.235 23.0982V15.8074H705.352L705.297 28.7281ZM707.287 15.8074H711.267V18.2986H711.349C711.568 17.5013 712.038 16.8007 712.686 16.3066C713.334 15.8125 714.124 15.5528 714.931 15.5682C715.753 15.5007 716.569 15.7528 717.218 16.2744C717.866 16.7959 718.299 17.5488 718.431 18.3831H718.513C718.762 17.5399 719.278 16.8057 719.979 16.296C720.68 15.7864 721.526 15.5303 722.384 15.5682C722.943 15.5488 723.502 15.6506 724.021 15.8667C724.54 16.0828 725.008 16.4086 725.396 16.8227C725.785 17.2369 726.084 17.7303 726.275 18.2706C726.465 18.8111 726.542 19.3864 726.501 19.9595V28.7562H722.384V21.0854C722.384 19.6779 721.766 19.0305 720.614 19.0305C720.356 19.0283 720.101 19.0826 719.866 19.1898C719.632 19.2972 719.422 19.4547 719.252 19.6522C719.081 19.8496 718.955 20.0823 718.879 20.3344C718.803 20.5864 718.782 20.8522 718.815 21.1136V28.7562H714.904V21.0292C714.904 19.7343 714.287 19.0305 713.161 19.0305C712.901 19.0306 712.644 19.0873 712.407 19.1966C712.17 19.306 711.958 19.4658 711.785 19.6653C711.613 19.8648 711.483 20.0995 711.406 20.354C711.329 20.6085 711.305 20.877 711.335 21.1417V28.7562H707.218L707.287 15.8074Z" fill="#1D2130"/>
<path d="M599.194 12.4578C598.495 10.8201 597.571 9.29375 596.449 7.92578C594.79 5.84319 592.72 4.14444 590.375 2.94135C588.03 1.73826 585.464 1.05809 582.844 0.945621C580.224 0.833152 577.611 1.29092 575.176 2.28881C572.741 3.28671 570.54 4.80209 568.718 6.73524C566.895 8.66837 565.492 10.9754 564.602 13.5046C563.711 16.0337 563.353 18.7276 563.551 21.4089C563.749 24.0901 564.498 26.6981 565.75 29.061C567.001 31.424 568.726 33.4884 570.812 35.1182C572.15 36.1849 573.628 37.0521 575.204 37.6939C577.412 38.622 579.775 39.1 582.162 39.1014C587.088 39.0902 591.809 37.0765 595.29 33.5015C598.771 29.9266 600.727 25.0821 600.731 20.03C600.735 17.4241 600.211 14.8458 599.194 12.4578ZM582.148 4.81525C584.291 4.81501 586.408 5.29539 588.352 6.22272C587.878 6.43268 587.38 6.57931 586.869 6.65905C585.19 6.9083 583.635 7.70772 582.435 8.93799C581.235 10.1683 580.456 11.7634 580.213 13.4854C580.106 14.451 579.678 15.3494 579 16.0289C578.323 16.7084 577.437 17.1274 576.494 17.2151C574.815 17.4644 573.259 18.2638 572.059 19.494C570.86 20.7244 570.08 22.3195 569.837 24.0414C569.755 24.9596 569.373 25.8225 568.753 26.4904C567.683 24.1727 567.203 21.6151 567.356 19.0557C567.51 16.4964 568.292 14.0184 569.63 11.8522C570.968 9.68625 572.819 7.90258 575.01 6.66728C577.201 5.43198 579.661 4.78518 582.162 4.7871L582.148 4.81525ZM570.798 29.8825C570.963 29.7276 571.127 29.5868 571.292 29.4179C572.513 28.2039 573.297 26.6014 573.515 24.8718C573.604 23.8996 574.027 22.9915 574.709 22.3101C575.366 21.6095 576.249 21.179 577.194 21.0998C578.873 20.8505 580.428 20.051 581.628 18.8208C582.827 17.5906 583.607 15.9954 583.85 14.2735C583.909 13.2566 584.335 12.2986 585.044 11.5852C585.716 10.8982 586.608 10.4833 587.556 10.417C589.098 10.1994 590.537 9.49611 591.673 8.40431C592.967 9.50507 594.063 10.8293 594.912 12.3171C594.86 12.3894 594.8 12.4555 594.733 12.5141C594.078 13.221 593.196 13.6609 592.249 13.7527C590.568 13.9976 589.011 14.7957 587.81 16.0267C586.61 17.2578 585.832 18.8554 585.593 20.579C585.496 21.5479 585.076 22.4528 584.403 23.1402C583.73 23.8277 582.846 24.2555 581.901 24.351C580.217 24.5984 578.656 25.3962 577.449 26.626C576.243 27.8558 575.455 29.4519 575.204 31.1772C575.13 31.8651 574.899 32.5257 574.531 33.1056C573.123 32.2481 571.862 31.1592 570.798 29.8825ZM582.148 35.3152C580.755 35.3168 579.369 35.1178 578.031 34.7241C578.489 33.8487 578.786 32.8946 578.909 31.9091C579.005 30.9424 579.424 30.0392 580.094 29.352C580.764 28.6649 581.645 28.2358 582.587 28.1371C584.269 27.8907 585.827 27.0925 587.03 25.862C588.232 24.6315 589.014 23.0348 589.257 21.3109C589.353 20.3441 589.772 19.4409 590.442 18.7538C591.112 18.0666 591.993 17.6375 592.936 17.5388C594.201 17.37 595.407 16.8869 596.449 16.1314C597.028 18.3804 597.096 20.7355 596.649 23.0158C596.203 25.2962 595.252 27.4414 593.872 29.2867C592.491 31.132 590.716 32.6286 588.684 33.6614C586.652 34.6941 584.416 35.2359 582.148 35.2449V35.3152Z" fill="#1D2130"/>
<g clip-path="url(#clip2_262_73)">
<path d="M337.136 9.75708H340.936V28.7094H337.136V9.75708Z" fill="#1D2130"/>
<path d="M343.064 22.2177C343.064 20.8541 343.455 19.5213 344.188 18.3881C344.92 17.255 345.961 16.3724 347.179 15.8524C348.396 15.3324 349.736 15.1983 351.027 15.4673C352.318 15.7362 353.503 16.3959 354.432 17.3629C355.36 18.3297 355.991 19.5604 356.243 20.8987C356.495 22.237 356.358 23.6227 355.849 24.8802C355.34 26.1377 354.481 27.2103 353.383 27.9622C352.284 28.7141 350.994 29.1114 349.677 29.1036C348.804 29.1107 347.937 28.937 347.13 28.593C346.322 28.249 345.588 27.7414 344.972 27.1001C344.356 26.4588 343.87 25.6965 343.543 24.8581C343.215 24.0198 343.052 23.122 343.064 22.2177ZM352.591 22.2177C352.576 21.6299 352.394 21.0597 352.068 20.5783C351.741 20.097 351.285 19.726 350.756 19.5117C350.227 19.2974 349.649 19.2493 349.094 19.3734C348.539 19.4975 348.031 19.7884 347.635 20.2095C347.238 20.6308 346.971 21.1636 346.865 21.7414C346.76 22.3192 346.821 22.9164 347.042 23.4582C347.263 24.0001 347.633 24.4626 348.106 24.7878C348.579 25.1131 349.134 25.2867 349.702 25.2869C350.089 25.2947 350.473 25.2198 350.831 25.067C351.188 24.914 351.512 24.6865 351.78 24.3984C352.049 24.1104 352.257 23.7681 352.392 23.3929C352.528 23.0176 352.587 22.6176 352.566 22.2177H352.591Z" fill="#1D2130"/>
<path d="M371.328 15.7259V28.0679C371.328 32.4223 368.034 34.2716 364.702 34.2716C363.527 34.3715 362.348 34.1298 361.298 33.5737C360.249 33.0175 359.37 32.1691 358.76 31.1239L361.966 29.209C362.225 29.7511 362.638 30.1984 363.15 30.4913C363.662 30.7843 364.247 30.9088 364.829 30.8485C365.199 30.8956 365.575 30.8576 365.93 30.7369C366.285 30.6162 366.609 30.4159 366.88 30.1501C367.151 29.8845 367.362 29.5601 367.498 29.2001C367.634 28.8401 367.692 28.4535 367.666 28.0679V26.8743C367.224 27.4295 366.663 27.8703 366.028 28.1617C365.392 28.4531 364.7 28.5871 364.005 28.5532C362.325 28.5532 360.714 27.8622 359.526 26.6324C358.338 25.4025 357.671 23.7345 357.671 21.9952C357.671 20.256 358.338 18.588 359.526 17.3581C360.714 16.1283 362.325 15.4373 364.005 15.4373C364.7 15.4033 365.392 15.5374 366.028 15.8288C366.663 16.1202 367.224 16.561 367.666 17.1162V15.8046L371.328 15.7259ZM367.666 21.9558C367.692 21.3284 367.535 20.7074 367.217 20.1728C366.898 19.6382 366.433 19.2144 365.88 18.9558C365.327 18.6974 364.712 18.6161 364.114 18.7223C363.516 18.8286 362.963 19.1175 362.525 19.5521C362.087 19.9866 361.785 20.5468 361.657 21.1608C361.529 21.7747 361.581 22.4142 361.807 22.9971C362.033 23.58 362.422 24.0795 362.924 24.4315C363.427 24.7835 364.019 24.972 364.626 24.9726C365.022 25.002 365.419 24.9453 365.793 24.8059C366.166 24.6665 366.507 24.4476 366.793 24.1633C367.08 23.879 367.306 23.5357 367.456 23.1554C367.606 22.7752 367.678 22.3666 367.666 21.9558Z" fill="#1D2130"/>
<path d="M373.469 22.2178C373.469 20.8554 373.86 19.5236 374.591 18.391C375.322 17.2582 376.362 16.3757 377.578 15.855C378.794 15.3341 380.132 15.1985 381.422 15.4653C382.713 15.7321 383.898 16.3892 384.828 17.3535C385.757 18.3178 386.39 19.5459 386.645 20.8825C386.9 22.2192 386.767 23.604 386.261 24.862C385.756 26.12 384.902 27.1945 383.806 27.9495C382.711 28.7046 381.424 29.1062 380.108 29.1037C379.232 29.1124 378.364 28.9402 377.554 28.5971C376.744 28.254 376.008 27.747 375.39 27.1056C374.772 26.4643 374.283 25.7016 373.953 24.8622C373.624 24.023 373.459 23.1239 373.469 22.2178ZM382.996 22.2178C382.981 21.6294 382.799 21.0586 382.472 20.5771C382.145 20.0956 381.688 19.7245 381.158 19.5106C380.629 19.2967 380.05 19.2494 379.494 19.3745C378.939 19.4998 378.431 19.7919 378.035 20.2143C377.639 20.6368 377.373 21.1709 377.269 21.7495C377.165 22.3282 377.228 22.9258 377.451 23.4675C377.673 24.009 378.045 24.4706 378.52 24.7942C378.995 25.1179 379.552 25.2893 380.12 25.287C380.507 25.2948 380.891 25.2199 381.249 25.0671C381.606 24.9141 381.929 24.6866 382.198 24.3985C382.467 24.1105 382.675 23.7682 382.81 23.393C382.945 23.0177 383.004 22.6177 382.983 22.2178H382.996Z" fill="#1D2130"/>
<path d="M388.507 12.2491C388.507 11.7874 388.639 11.3361 388.887 10.9521C389.135 10.5682 389.487 10.2689 389.899 10.0923C390.311 9.91556 390.764 9.86933 391.202 9.95941C391.639 10.0495 392.041 10.2719 392.356 10.5984C392.672 10.9248 392.887 11.3408 392.974 11.7937C393.061 12.2466 393.016 12.716 392.845 13.1426C392.675 13.5692 392.385 13.9338 392.015 14.1904C391.644 14.4469 391.208 14.5838 390.762 14.5838C390.166 14.577 389.596 14.3288 389.175 13.8924C388.753 13.4561 388.513 12.8663 388.507 12.2491ZM388.874 15.7249H392.675V28.7095H388.874V15.7249Z" fill="#1D2130"/>
<path d="M408.942 22.2173C408.985 23.0808 408.862 23.9446 408.581 24.7588C408.3 25.573 407.866 26.3218 407.304 26.9617C406.743 27.6017 406.064 28.1203 405.308 28.4878C404.552 28.8554 403.734 29.0644 402.899 29.1031C402.191 29.1519 401.481 29.0345 400.824 28.7597C400.166 28.4848 399.576 28.0598 399.098 27.5161V33.9298H395.298V15.7249H399.098V16.9447C399.577 16.4027 400.167 15.9795 400.825 15.7069C401.482 15.4344 402.192 15.3195 402.899 15.3708C403.73 15.4096 404.545 15.6174 405.299 15.9825C406.053 16.3475 406.729 16.8626 407.29 17.4984C407.851 18.1341 408.286 18.8781 408.57 19.6877C408.853 20.4975 408.979 21.3569 408.942 22.2173ZM405.141 22.2173C405.126 21.6081 404.938 21.017 404.6 20.5183C404.262 20.0194 403.79 19.635 403.242 19.4131C402.692 19.1913 402.093 19.1419 401.518 19.2711C400.943 19.4003 400.417 19.7025 400.008 20.1396C399.598 20.5768 399.321 21.1296 399.213 21.7285C399.105 22.3276 399.17 22.9463 399.401 23.5071C399.632 24.0678 400.016 24.5458 400.508 24.881C400.999 25.2162 401.575 25.3937 402.164 25.3913C402.568 25.409 402.97 25.3383 403.344 25.1838C403.72 25.0294 404.058 24.7945 404.34 24.4948C404.621 24.1951 404.838 23.8372 404.976 23.4447C405.113 23.0523 405.17 22.634 405.141 22.2173Z" fill="#1D2130"/>
<path d="M420.508 24.8141C420.508 27.8045 417.974 29.0767 415.289 29.0767C414.193 29.1788 413.093 28.9384 412.131 28.3866C411.169 27.8348 410.389 26.997 409.892 25.9813L413.16 24.0665C413.29 24.5345 413.57 24.9423 413.956 25.2216C414.341 25.5009 414.806 25.6349 415.276 25.601C416.175 25.601 416.631 25.3125 416.631 24.7878C416.631 23.3583 410.462 24.119 410.462 19.6202C410.462 16.7872 412.768 15.3707 415.377 15.3707C416.37 15.3247 417.355 15.5577 418.23 16.0449C419.103 16.5322 419.834 17.2555 420.343 18.1382L417.075 19.9219C416.931 19.5835 416.694 19.2957 416.396 19.0931C416.096 18.8907 415.747 18.7822 415.39 18.7808C414.732 18.7808 414.338 19.0431 414.338 19.5022C414.338 20.9973 420.508 20.0137 420.508 24.8141Z" fill="#1D2130"/>
<path d="M434.279 15.7251V28.7098H430.478V27.49C430.046 28.0299 429.498 28.4573 428.877 28.7375C428.257 29.0177 427.581 29.1431 426.905 29.1033C424.371 29.1033 422.205 27.2278 422.205 23.7258V15.7251H426.006V23.1356C425.976 23.4454 426.012 23.7582 426.11 24.0525C426.208 24.3467 426.367 24.6154 426.575 24.8398C426.783 25.0643 427.037 25.2393 427.317 25.3526C427.597 25.466 427.898 25.515 428.197 25.4964C429.566 25.4964 430.528 24.657 430.528 22.8733V15.7251H434.279Z" fill="#1D2130"/>
<path d="M455.814 20.7354V28.7099H452.014V21.0764C452.014 19.7648 451.418 18.9517 450.215 18.9517C449.011 18.9517 448.251 19.8566 448.251 21.3912V28.7099H444.45V21.0764C444.45 19.7648 443.855 18.9517 442.651 18.9517C441.448 18.9517 440.687 19.8566 440.687 21.3912V28.7099H436.887V15.7252H440.687V16.9187C441.081 16.3914 441.595 15.9739 442.184 15.7036C442.772 15.4335 443.416 15.3191 444.058 15.371C444.7 15.3363 445.341 15.4753 445.916 15.7742C446.491 16.0732 446.982 16.5218 447.338 17.0761C447.756 16.497 448.309 16.0368 448.945 15.7386C449.581 15.4404 450.278 15.314 450.974 15.371C453.939 15.371 455.814 17.4958 455.814 20.7354Z" fill="#1D2130"/>
<path d="M314.496 6.34693V0.772705H297.52V39.071H314.496V33.4967C311.018 33.4967 307.683 32.0665 305.224 29.5207C302.765 26.975 301.383 23.5221 301.383 19.9218C301.383 16.3215 302.765 12.8687 305.224 10.323C307.683 7.77714 311.018 6.34693 314.496 6.34693Z" fill="#1D2130"/>
<path d="M314.497 6.34766V33.4974C317.975 33.4974 321.31 32.0673 323.769 29.5214C326.228 26.9757 327.609 23.5229 327.609 19.9225C327.609 16.3222 326.228 12.8694 323.769 10.3237C321.31 7.77786 317.975 6.34766 314.497 6.34766Z" fill="#1D2130"/>
<path d="M459.007 15.6465C460.547 15.6465 461.794 14.3546 461.794 12.761C461.794 11.1674 460.547 9.87549 459.007 9.87549C457.468 9.87549 456.22 11.1674 456.22 12.761C456.22 14.3546 457.468 15.6465 459.007 15.6465Z" fill="#1D2130"/>
</g>
<g clip-path="url(#clip3_262_73)">
<path d="M30.094 17.6035C29.5463 18.1718 29.1267 18.8575 28.8654 19.612C28.604 20.3665 28.5074 21.1711 28.582 21.9686L28.556 21.9418C28.6329 22.8804 28.5101 23.8249 28.1964 24.7097C27.8826 25.5944 27.3854 26.3978 26.7393 27.0639C26.0933 27.73 25.314 28.2427 24.4559 28.5662C23.5979 28.8898 22.6816 29.0162 21.7712 28.9371L21.7972 28.9639C20.7083 28.8594 19.6144 29.1037 18.6651 29.6635C17.7157 30.2234 16.9569 31.0717 16.4922 32.0924C16.0273 33.1132 15.8793 34.2569 16.0681 35.3677C16.2569 36.4784 16.7734 37.502 17.5471 38.2991C18.3209 39.096 19.3142 39.6277 20.3917 39.8213C21.4691 40.015 22.5783 39.8612 23.568 39.3812C24.5576 38.9011 25.3795 38.1179 25.9217 37.1386C26.4638 36.1592 26.6999 35.0313 26.5975 33.9086L26.625 33.9354C26.5481 32.9967 26.6709 32.0521 26.9847 31.1674C27.2984 30.2827 27.7958 29.4793 28.4418 28.8133C29.0879 28.1472 29.867 27.6345 30.7251 27.3109C31.5832 26.9874 32.4994 26.8608 33.4098 26.9401L33.3823 26.9133C34.2719 26.9958 35.1673 26.8454 35.9855 26.476C36.8037 26.1067 37.5183 25.5305 38.0629 24.8006C38.6075 24.0708 38.9647 23.2111 39.1013 22.3009C39.238 21.3909 39.1494 20.46 38.8441 19.5946C38.539 18.7292 38.0267 17.9572 37.355 17.3502C36.6832 16.7433 35.8738 16.3209 35.0017 16.1224C34.1295 15.9238 33.2228 15.9554 32.3656 16.2144C31.5085 16.4733 30.7286 16.9511 30.0983 17.6035H30.094Z" fill="#1D2130"/>
<path d="M19.4313 25.4503L19.4038 25.4235C20.1776 25.5038 20.959 25.4059 21.6916 25.1368C22.4242 24.8677 23.0896 24.434 23.6397 23.8672C24.1899 23.3005 24.611 22.6148 24.8725 21.8597C25.1341 21.1046 25.2297 20.299 25.1523 19.5011L25.1798 19.5279C25.1029 18.5893 25.2257 17.6446 25.5394 16.7601C25.8532 15.8753 26.3504 15.0719 26.9965 14.4058C27.6425 13.7397 28.4218 13.227 29.2799 12.9035C30.1379 12.5799 31.0542 12.4533 31.9646 12.5326L31.9371 12.5058C33.0261 12.6112 34.1203 12.3677 35.0702 11.8085C36.0202 11.2493 36.7796 10.4015 37.2451 9.38086C37.7105 8.36023 37.8593 7.21641 37.6711 6.10539C37.4829 4.99438 36.9667 3.9703 36.1933 3.17279C35.4197 2.3753 34.4266 1.84323 33.349 1.64915C32.2714 1.45508 31.1619 1.60844 30.1721 2.08834C29.1821 2.56823 28.3599 3.35129 27.8175 4.3307C27.275 5.31011 27.0389 6.43819 27.1412 7.56109L27.1152 7.53277C27.1922 8.47148 27.0697 9.41623 26.7559 10.301C26.4423 11.1858 25.9449 11.9893 25.2988 12.6555C24.6529 13.3217 23.8735 13.8344 23.0153 14.1578C22.1571 14.4812 21.2408 14.6076 20.3304 14.5281L20.3563 14.5564C19.5826 14.4761 18.8011 14.5739 18.0686 14.8431C17.336 15.1122 16.6705 15.5458 16.1204 16.1126C15.5704 16.6793 15.1492 17.3651 14.8876 18.1202C14.6261 18.8753 14.5305 19.6809 14.6079 20.4788L14.5819 20.4519C14.6585 21.3905 14.5355 22.335 14.2216 23.2196C13.9077 24.1042 13.4105 24.9075 12.7645 25.5735C12.1185 26.2396 11.3394 26.7523 10.4815 27.0758C9.62351 27.3995 8.70742 27.5263 7.79708 27.4472L7.82309 27.474C6.73399 27.3686 5.63986 27.6122 4.68992 28.1713C3.73998 28.7306 2.98049 29.5784 2.51504 30.599C2.04959 31.6197 1.90083 32.7635 2.08907 33.8745C2.2773 34.9855 2.79337 36.0096 3.56687 36.8071C4.34036 37.6046 5.33364 38.1366 6.41121 38.3308C7.48878 38.5248 8.59819 38.3715 9.58811 37.8916C10.578 37.4117 11.4003 36.6286 11.9426 35.6492C12.4851 34.6698 12.7212 33.5417 12.619 32.4188L12.6465 32.4456C12.5696 31.507 12.6924 30.5623 13.0062 29.6777C13.3199 28.793 13.8173 27.9896 14.4633 27.3235C15.1094 26.6573 15.8885 26.1446 16.7466 25.8211C17.6046 25.4976 18.5209 25.3711 19.4313 25.4503Z" fill="#1D2130"/>
<path d="M9.7433 22.4595C10.2912 21.8914 10.7106 21.2056 10.9717 20.451C11.2328 19.6964 11.3291 18.8918 11.2538 18.0944L11.2812 18.1213C11.2043 17.1823 11.3271 16.2375 11.641 15.3525C11.955 14.4676 12.4526 13.6641 13.0989 12.9978C13.7453 12.3317 14.5249 11.8191 15.3833 11.4958C16.2418 11.1725 17.1583 11.0463 18.0689 11.126L18.0414 11.0991C19.1301 11.2043 20.2239 10.9607 21.1733 10.4015C22.1229 9.84224 22.882 8.99469 23.3472 7.97437C23.8123 6.95405 23.9609 5.81064 23.7727 4.70004C23.5845 3.58945 23.0686 2.56576 22.2954 1.76855C21.5221 0.971347 20.5293 0.439442 19.452 0.245372C18.3749 0.0513041 17.2659 0.20452 16.2763 0.684124C15.2867 1.16373 14.4647 1.94637 13.9222 2.92534C13.3799 3.90429 13.1436 5.03191 13.2455 6.15442L13.2195 6.1276C13.2964 7.06624 13.1736 8.01088 12.8598 8.89556C12.5461 9.78024 12.0488 10.5837 11.4027 11.2497C10.7567 11.9158 9.97746 12.4285 9.1194 12.7521C8.26134 13.0756 7.34514 13.2022 6.43474 13.1229L6.46076 13.1497C5.5712 13.0675 4.6759 13.2181 3.85783 13.5876C3.03974 13.957 2.32534 14.5334 1.78084 15.2634C1.23633 15.9933 0.879334 16.853 0.742922 17.763C0.60651 18.6731 0.695098 19.604 1.00048 20.4693C1.30585 21.3345 1.81815 22.1064 2.48989 22.7133C3.16162 23.3202 3.97105 23.7424 4.84319 23.9409C5.71532 24.1394 6.62192 24.1076 7.47901 23.8487C8.33609 23.5897 9.1159 23.1118 9.7462 22.4595H9.7433Z" fill="#1D2130"/>
<path d="M54.5176 7.59521H58.8105V29.1341H54.5176V7.59521Z" fill="#1D2130"/>
<path d="M61.2423 21.7594C61.2362 20.2115 61.6759 18.6967 62.5056 17.4067C63.3353 16.1167 64.5177 15.1095 65.9029 14.513C67.2882 13.9163 68.8141 13.757 70.2873 14.0552C71.7604 14.3533 73.1147 15.0955 74.1783 16.1879C75.242 17.2801 75.9674 18.6734 76.2625 20.1911C76.5576 21.7087 76.4092 23.2826 75.836 24.7132C75.2629 26.1439 74.2909 27.367 73.043 28.2275C71.7951 29.0881 70.3276 29.5475 68.8264 29.5475C67.8298 29.5593 66.8409 29.3661 65.9177 28.9792C64.9944 28.5924 64.1552 28.0197 63.449 27.2945C62.7429 26.5694 62.1841 25.7065 61.8051 24.756C61.4262 23.8057 61.2348 22.787 61.2423 21.7594ZM72.1176 21.7594C72.0997 21.0923 71.8914 20.4453 71.5188 19.8994C71.1463 19.3537 70.6259 18.9332 70.0229 18.6906C69.4197 18.448 68.7607 18.3941 68.128 18.5357C67.4954 18.6772 66.9172 19.0079 66.4659 19.4863C66.0145 19.9647 65.71 20.5698 65.5902 21.2257C65.4705 21.8817 65.5411 22.5594 65.793 23.1743C66.0448 23.7891 66.4669 24.3138 67.0065 24.6826C67.546 25.0514 68.1791 25.2483 68.8264 25.2481C69.2697 25.2604 69.7107 25.1778 70.1215 25.0054C70.5324 24.8332 70.9041 24.575 71.2133 24.2472C71.5226 23.9194 71.7625 23.5292 71.9182 23.101C72.0739 22.6728 72.1418 22.216 72.1176 21.7594Z" fill="#1D2130"/>
<path d="M93.5202 14.3817V28.3903C93.5202 33.347 89.7708 35.4423 85.965 35.4423C84.625 35.5457 83.2833 35.2667 82.0869 34.6357C80.8907 34.0048 79.886 33.0464 79.1831 31.8656L82.8457 29.6824C83.1412 30.2978 83.6119 30.8057 84.1949 31.1377C84.7779 31.4698 85.4455 31.6104 86.108 31.5408C86.5316 31.6013 86.9629 31.5628 87.37 31.4282C87.7771 31.2937 88.1497 31.0664 88.4602 30.7634C88.7706 30.4603 89.0111 30.0891 89.1637 29.6774C89.3162 29.2656 89.377 28.8236 89.3415 28.3843V27.0357C88.8388 27.6698 88.199 28.1737 87.4733 28.5068C86.7476 28.8398 85.9562 28.9929 85.1628 28.9536C83.2748 28.8923 81.484 28.0758 80.1696 26.6771C78.8551 25.2786 78.1201 23.4074 78.1201 21.4598C78.1201 19.5123 78.8551 17.6411 80.1696 16.2424C81.484 14.8438 83.2748 14.0274 85.1628 13.966C85.9562 13.9268 86.7476 14.0798 87.4733 14.4129C88.199 14.746 88.8388 15.2498 89.3415 15.884V14.3788L93.5202 14.3817ZM89.343 21.4621C89.3719 20.7488 89.193 20.0429 88.8294 19.4353C88.4658 18.8276 87.9342 18.3461 87.303 18.0526C86.6718 17.7591 85.9698 17.6671 85.2874 17.7884C84.6051 17.9097 83.9736 18.2388 83.4741 18.7333C82.9747 19.2278 82.6302 19.8651 82.485 20.5631C82.3399 21.2613 82.4006 21.9881 82.6595 22.6503C82.9184 23.3124 83.3636 23.8795 83.9377 24.2787C84.5119 24.6777 85.1887 24.8906 85.8812 24.8897C86.3322 24.9221 86.7848 24.8568 87.2099 24.698C87.635 24.5391 88.0231 24.2902 88.3492 23.9674C88.6754 23.6444 88.9322 23.2547 89.1034 22.8231C89.2745 22.3917 89.3562 21.9281 89.343 21.4621Z" fill="#1D2130"/>
<path d="M95.9513 21.7594C95.9453 20.2115 96.3849 18.6967 97.2147 17.4067C98.0444 16.1167 99.2267 15.1095 100.612 14.513C101.997 13.9163 103.523 13.757 104.996 14.0552C106.47 14.3533 107.824 15.0955 108.887 16.1879C109.951 17.2801 110.676 18.6734 110.972 20.1911C111.267 21.7087 111.118 23.2826 110.545 24.7132C109.972 26.1439 109 27.367 107.752 28.2275C106.504 29.0881 105.037 29.5475 103.535 29.5475C102.539 29.5593 101.55 29.3661 100.627 28.9792C99.7035 28.5924 98.8642 28.0197 98.1581 27.2945C97.452 26.5694 96.8931 25.7065 96.5142 24.756C96.1353 23.8057 95.9439 22.787 95.9513 21.7594ZM106.827 21.7594C106.809 21.0923 106.601 20.4453 106.228 19.8994C105.855 19.3537 105.335 18.9332 104.732 18.6906C104.129 18.448 103.47 18.3941 102.837 18.5357C102.204 18.6772 101.626 19.0079 101.175 19.4863C100.724 19.9647 100.419 20.5698 100.299 21.2257C100.18 21.8817 100.25 22.5594 100.502 23.1743C100.754 23.7891 101.176 24.3138 101.716 24.6826C102.255 25.0514 102.888 25.2483 103.535 25.2481C103.979 25.2604 104.42 25.1778 104.831 25.0054C105.241 24.8332 105.613 24.575 105.922 24.2472C106.232 23.9194 106.472 23.5292 106.627 23.101C106.783 22.6728 106.851 22.216 106.827 21.7594Z" fill="#1D2130"/>
<path d="M113.122 10.4279C113.122 9.90265 113.273 9.3892 113.556 8.95248C113.839 8.51575 114.241 8.17537 114.712 7.97437C115.183 7.77337 115.701 7.72078 116.2 7.82325C116.7 7.92572 117.159 8.17865 117.519 8.55005C117.879 8.92145 118.125 9.39464 118.224 9.90979C118.323 10.4249 118.273 10.9589 118.077 11.4442C117.882 11.9295 117.552 12.3442 117.129 12.6359C116.705 12.9278 116.207 13.0836 115.697 13.0836C115.017 13.0765 114.366 12.7945 113.884 12.298C113.402 11.8015 113.129 11.13 113.122 10.4279ZM113.556 14.3816H117.85V29.1352H113.55L113.556 14.3816Z" fill="#1D2130"/>
<path d="M136.386 21.759C136.435 22.7341 136.298 23.7096 135.98 24.6295C135.663 25.5495 135.172 26.3958 134.536 27.1195C133.901 27.8433 133.132 28.4303 132.277 28.8469C131.42 29.2636 130.492 29.5015 129.546 29.5472C128.751 29.5919 127.955 29.4536 127.218 29.1422C126.481 28.8308 125.819 28.3542 125.283 27.7469V35.0359H120.99V14.3822H125.283V15.7681C125.821 15.1613 126.481 14.685 127.219 14.374C127.955 14.0628 128.751 13.9247 129.546 13.9694C130.492 14.0148 131.42 14.2527 132.277 14.6693C133.133 15.086 133.902 15.6732 134.537 16.3972C135.173 17.1212 135.664 17.9676 135.982 18.8878C136.299 19.808 136.436 20.7838 136.386 21.759ZM132.093 21.759C132.077 21.0686 131.862 20.3985 131.478 19.8327C131.094 19.267 130.556 18.8307 129.933 18.5785C129.309 18.3261 128.626 18.2692 127.972 18.4145C127.317 18.5599 126.718 18.9012 126.25 19.3956C125.783 19.8901 125.467 20.5159 125.342 21.1946C125.218 21.8733 125.29 22.5747 125.55 23.2112C125.811 23.8475 126.248 24.3907 126.805 24.7726C127.364 25.1545 128.019 25.3581 128.689 25.358C129.148 25.3792 129.608 25.2998 130.036 25.1252C130.464 24.9505 130.851 24.6846 131.173 24.3447C131.495 24.0049 131.742 23.5989 131.901 23.1533C132.059 22.7076 132.125 22.2326 132.093 21.759Z" fill="#1D2130"/>
<path d="M149.631 24.7082C149.631 28.1015 146.771 29.5472 143.681 29.5472C142.433 29.6638 141.179 29.3915 140.082 28.7655C138.985 28.1396 138.095 27.1888 137.528 26.036L141.247 23.8528C141.398 24.3856 141.721 24.8492 142.163 25.166C142.605 25.4827 143.138 25.6336 143.676 25.5934C144.705 25.5934 145.22 25.2686 145.22 24.6799C145.22 23.0555 138.18 23.9125 138.18 18.8082C138.18 15.5907 140.814 13.9693 143.79 13.9693C144.909 13.9328 146.016 14.2065 146.998 14.7616C147.979 15.3168 148.798 16.1332 149.369 17.1258L145.706 19.1614C145.546 18.7749 145.278 18.4459 144.937 18.2151C144.596 17.9842 144.198 17.8619 143.79 17.8634C143.046 17.8634 142.586 18.1614 142.586 18.6891C142.592 20.3715 149.631 19.2494 149.631 24.7082Z" fill="#1D2130"/>
<path d="M165.316 14.3823V29.136H161.022V27.7486C160.528 28.3608 159.899 28.8431 159.188 29.1561C158.477 29.469 157.704 29.6036 156.932 29.5488C154.041 29.5488 151.584 27.4251 151.584 23.4387V14.3823H155.877V22.7904C155.842 23.1419 155.879 23.497 155.991 23.8314C156.102 24.1657 156.281 24.4713 156.518 24.7266C156.755 24.9819 157.043 25.1809 157.362 25.3097C157.682 25.4387 158.024 25.4943 158.366 25.4729C159.94 25.4729 161.027 24.5296 161.027 22.4343V14.3868L165.316 14.3823Z" fill="#1D2130"/>
<path d="M189.93 20.0771V29.135H185.637V20.4602C185.637 18.9847 184.95 18.0415 183.577 18.0415C182.147 18.0415 181.344 19.0742 181.344 20.8149V29.135H177.053V20.4602C177.053 18.9847 176.366 18.0415 174.992 18.0415C173.56 18.0415 172.76 19.0742 172.76 20.8149V29.135H168.467V14.3813H172.76V15.7375C173.205 15.1358 173.789 14.6587 174.459 14.3497C175.129 14.0407 175.863 13.9097 176.595 13.9685C177.329 13.9315 178.061 14.0913 178.717 14.4324C179.374 14.7735 179.934 15.2843 180.343 15.9149C180.818 15.2551 181.448 14.7305 182.174 14.3902C182.9 14.0498 183.697 13.9047 184.492 13.9685C187.778 13.97 189.93 16.3887 189.93 20.0771Z" fill="#1D2130"/>
<path d="M193.562 14.2913C195.321 14.2913 196.748 12.8208 196.748 11.0067C196.748 9.19271 195.321 7.72217 193.562 7.72217C191.803 7.72217 190.376 9.19271 190.376 11.0067C190.376 12.8208 191.803 14.2913 193.562 14.2913Z" fill="#1D2130"/>
</g>
<defs>
<clipPath id="clip0_262_73">
<rect width="165.987" height="40" fill="white" transform="translate(1114.01)"/>
</clipPath>
<clipPath id="clip1_262_73">
<rect width="187.141" height="40" fill="white" transform="translate(826.745)"/>
</clipPath>
<clipPath id="clip2_262_73">
<rect width="165.725" height="40" fill="white" transform="translate(297.005)"/>
</clipPath>
<clipPath id="clip3_262_73">
<rect width="196.967" height="40" fill="white"/>
</clipPath>
</defs>
</svg>
